<svg width="104" height="19" viewBox="0 0 104 19" fill="none" xmlns="http://www.w3.org/2000/svg">
<path d="M0.2 0.863999H6.584C8.024 0.863999 9.144 1.232 9.944 1.968C10.744 2.688 11.144 3.792 11.144 5.28C11.144 6.432 10.912 7.376 10.448 8.112C9.984 8.832 9.264 9.296 8.288 9.504V9.552C9.152 9.68 9.784 9.96 10.184 10.392C10.584 10.824 10.832 11.52 10.928 12.48C10.96 12.8 10.984 13.152 11 13.536C11.016 13.904 11.032 14.32 11.048 14.784C11.08 15.696 11.128 16.392 11.192 16.872C11.288 17.352 11.496 17.68 11.816 17.856V18H8.072C7.896 17.76 7.784 17.488 7.736 17.184C7.688 16.864 7.656 16.536 7.64 16.2L7.544 12.912C7.512 12.24 7.344 11.712 7.04 11.328C6.736 10.944 6.224 10.752 5.504 10.752H3.656V18H0.2V0.863999ZM3.656 8.352H5.096C5.928 8.352 6.568 8.16 7.016 7.776C7.464 7.376 7.688 6.712 7.688 5.784C7.688 4.2 6.888 3.408 5.288 3.408H3.656V8.352ZM16.3199 11.544C16.3199 12.2 16.3359 12.808 16.3679 13.368C16.3999 13.928 16.4719 14.408 16.5839 14.808C16.7119 15.208 16.8959 15.52 17.1359 15.744C17.3759 15.968 17.6959 16.08 18.0959 16.08C18.7679 16.08 19.2319 15.728 19.4879 15.024C19.7439 14.32 19.8719 13.16 19.8719 11.544C19.8719 9.928 19.7439 8.768 19.4879 8.064C19.2319 7.36 18.7679 7.008 18.0959 7.008C17.6959 7.008 17.3759 7.12 17.1359 7.344C16.8959 7.568 16.7119 7.88 16.5839 8.28C16.4719 8.68 16.3999 9.16 16.3679 9.72C16.3359 10.28 16.3199 10.888 16.3199 11.544ZM13.0079 11.544C13.0079 10.44 13.0959 9.464 13.2719 8.616C13.4479 7.768 13.7359 7.064 14.1359 6.504C14.5359 5.928 15.0559 5.496 15.6959 5.208C16.3519 4.904 17.1519 4.752 18.0959 4.752C19.0879 4.736 19.9119 4.872 20.5679 5.16C21.2239 5.432 21.7439 5.856 22.1279 6.432C22.5119 7.008 22.7839 7.72 22.9439 8.568C23.1039 9.416 23.1839 10.408 23.1839 11.544C23.1839 12.648 23.0959 13.624 22.9199 14.472C22.7439 15.32 22.4559 16.032 22.0559 16.608C21.6559 17.168 21.1279 17.584 20.4719 17.856C19.8319 18.128 19.0399 18.264 18.0959 18.264C17.1039 18.28 16.2799 18.16 15.6239 17.904C14.9679 17.632 14.4479 17.216 14.0639 16.656C13.6799 16.08 13.4079 15.368 13.2479 14.52C13.0879 13.656 13.0079 12.664 13.0079 11.544ZM24.9712 5.088H28.1392V6.6H28.1872C28.5392 5.96 28.9952 5.496 29.5552 5.208C30.1152 4.904 30.7552 4.752 31.4752 4.752C32.5312 4.752 33.3392 5.04 33.8992 5.616C34.4752 6.192 34.7632 7.128 34.7632 8.424V18H31.4512V9.096C31.4512 8.424 31.3392 7.96 31.1152 7.704C30.8912 7.432 30.5312 7.296 30.0352 7.296C28.8672 7.296 28.2832 8.008 28.2832 9.432V18H24.9712V5.088ZM51.9742 0.863999V3.696H48.2302V18H44.7742V3.696H41.0302V0.863999H51.9742ZM57.6202 11.544C57.3962 11.72 57.1562 11.864 56.9002 11.976C56.6442 12.072 56.4122 12.144 56.2042 12.192C55.5322 12.336 55.0522 12.576 54.7642 12.912C54.4762 13.248 54.3322 13.704 54.3322 14.28C54.3322 14.776 54.4282 15.2 54.6202 15.552C54.8122 15.904 55.1322 16.08 55.5802 16.08C55.8042 16.08 56.0362 16.048 56.2762 15.984C56.5162 15.904 56.7322 15.784 56.9242 15.624C57.1322 15.464 57.3002 15.256 57.4282 15C57.5562 14.744 57.6202 14.44 57.6202 14.088V11.544ZM51.5722 9.048V8.736C51.5722 7.984 51.6922 7.36 51.9322 6.864C52.1722 6.352 52.4922 5.944 52.8922 5.64C53.3082 5.32 53.7882 5.096 54.3322 4.968C54.8922 4.824 55.4842 4.752 56.1082 4.752C57.1002 4.752 57.9002 4.848 58.5082 5.04C59.1162 5.232 59.5882 5.504 59.9242 5.856C60.2602 6.208 60.4842 6.632 60.5962 7.128C60.7242 7.608 60.7882 8.136 60.7882 8.712V15.504C60.7882 16.112 60.8122 16.584 60.8602 16.92C60.9242 17.256 61.0362 17.616 61.1962 18H58.0282C57.9162 17.792 57.8282 17.576 57.7642 17.352C57.7162 17.112 57.6682 16.88 57.6202 16.656H57.5722C57.1882 17.328 56.7402 17.768 56.2282 17.976C55.7322 18.168 55.0842 18.264 54.2842 18.264C53.7082 18.264 53.2202 18.168 52.8202 17.976C52.4202 17.768 52.1002 17.488 51.8602 17.136C51.6202 16.784 51.4442 16.392 51.3322 15.96C51.2202 15.512 51.1642 15.072 51.1642 14.64C51.1642 14.032 51.2282 13.512 51.3562 13.08C51.4842 12.632 51.6762 12.256 51.9322 11.952C52.2042 11.632 52.5402 11.368 52.9402 11.16C53.3562 10.952 53.8522 10.768 54.4282 10.608L56.3002 10.104C56.7962 9.976 57.1402 9.8 57.3322 9.576C57.5242 9.352 57.6202 9.024 57.6202 8.592C57.6202 8.096 57.5002 7.712 57.2602 7.44C57.0362 7.152 56.6442 7.008 56.0842 7.008C55.5722 7.008 55.1882 7.16 54.9322 7.464C54.6762 7.768 54.5482 8.176 54.5482 8.688V9.048H51.5722ZM63.2709 0.671999H66.5829V3.504H63.2709V0.671999ZM63.2709 5.088H66.5829V18H63.2709V5.088ZM69.0365 0.863999H72.3485V18H69.0365V0.863999ZM77.5621 11.544C77.5621 12.2 77.5781 12.808 77.6101 13.368C77.6421 13.928 77.7141 14.408 77.8261 14.808C77.9541 15.208 78.1381 15.52 78.3781 15.744C78.6181 15.968 78.9381 16.08 79.3381 16.08C80.0101 16.08 80.4741 15.728 80.7301 15.024C80.9861 14.32 81.1141 13.16 81.1141 11.544C81.1141 9.928 80.9861 8.768 80.7301 8.064C80.4741 7.36 80.0101 7.008 79.3381 7.008C78.9381 7.008 78.6181 7.12 78.3781 7.344C78.1381 7.568 77.9541 7.88 77.8261 8.28C77.7141 8.68 77.6421 9.16 77.6101 9.72C77.5781 10.28 77.5621 10.888 77.5621 11.544ZM74.2501 11.544C74.2501 10.44 74.3381 9.464 74.5141 8.616C74.6901 7.768 74.9781 7.064 75.3781 6.504C75.7781 5.928 76.2981 5.496 76.9381 5.208C77.5941 4.904 78.3941 4.752 79.3381 4.752C80.3301 4.736 81.1541 4.872 81.8101 5.16C82.4661 5.432 82.9861 5.856 83.3701 6.432C83.7541 7.008 84.0261 7.72 84.1861 8.568C84.3461 9.416 84.4261 10.408 84.4261 11.544C84.4261 12.648 84.3381 13.624 84.1621 14.472C83.9861 15.32 83.6981 16.032 83.2981 16.608C82.8981 17.168 82.3701 17.584 81.7141 17.856C81.0741 18.128 80.2821 18.264 79.3381 18.264C78.3461 18.28 77.5221 18.16 76.8661 17.904C76.2101 17.632 75.6901 17.216 75.3061 16.656C74.9221 16.08 74.6501 15.368 74.4901 14.52C74.3301 13.656 74.2501 12.664 74.2501 11.544ZM86.2134 5.088H89.3814V6.816H89.4294C89.7654 6.192 90.1734 5.696 90.6534 5.328C91.1334 4.944 91.7174 4.752 92.4054 4.752C92.5014 4.752 92.5974 4.76 92.6934 4.776C92.8054 4.776 92.9094 4.784 93.0054 4.8V7.968C92.8294 7.952 92.6534 7.944 92.4774 7.944C92.3174 7.928 92.1494 7.92 91.9734 7.92C91.6854 7.92 91.3974 7.96 91.1094 8.04C90.8214 8.12 90.5574 8.256 90.3174 8.448C90.0774 8.624 89.8854 8.864 89.7414 9.168C89.5974 9.456 89.5254 9.816 89.5254 10.248V18H86.2134V5.088ZM96.6296 13.776V14.208C96.6296 14.768 96.7736 15.224 97.0616 15.576C97.3656 15.912 97.7976 16.08 98.3576 16.08C98.8696 16.08 99.2776 15.952 99.5816 15.696C99.8856 15.44 100.038 15.056 100.038 14.544C100.038 14.128 99.9176 13.816 99.6776 13.608C99.4376 13.384 99.1576 13.208 98.8376 13.08L96.5096 12.24C95.5976 11.92 94.9096 11.472 94.4456 10.896C93.9816 10.304 93.7496 9.552 93.7496 8.64C93.7496 8.112 93.8376 7.616 94.0136 7.152C94.1896 6.672 94.4696 6.256 94.8536 5.904C95.2376 5.552 95.7256 5.272 96.3176 5.064C96.9256 4.856 97.6536 4.752 98.5016 4.752C100.006 4.752 101.118 5.072 101.838 5.712C102.558 6.352 102.918 7.256 102.918 8.424V8.952H99.9416C99.9416 8.28 99.8296 7.792 99.6056 7.488C99.3976 7.168 99.0216 7.008 98.4776 7.008C98.0616 7.008 97.6936 7.128 97.3736 7.368C97.0696 7.592 96.9176 7.936 96.9176 8.4C96.9176 8.72 97.0136 9.008 97.2056 9.264C97.4136 9.52 97.7976 9.736 98.3576 9.912L100.35 10.584C101.39 10.936 102.126 11.4 102.558 11.976C102.99 12.536 103.206 13.304 103.206 14.28C103.206 14.968 103.086 15.568 102.846 16.08C102.606 16.576 102.27 16.992 101.838 17.328C101.422 17.664 100.918 17.904 100.326 18.048C99.7496 18.192 99.1096 18.264 98.4056 18.264C97.4776 18.264 96.7016 18.176 96.0776 18C95.4696 17.824 94.9816 17.56 94.6136 17.208C94.2616 16.856 94.0136 16.432 93.8696 15.936C93.7256 15.424 93.6536 14.856 93.6536 14.232V13.776H96.6296Z" fill="black"/>
</svg>
