<svg width="55" height="55" viewBox="0 0 55 55" fill="none" xmlns="http://www.w3.org/2000/svg">
<path fill-rule="evenodd" clip-rule="evenodd" d="M24.4201 15.5768C24.6165 14.8579 24.9819 14.2096 25.4887 13.6911L36.583 2.36108C36.3354 2.31398 36.0865 2.27467 35.8365 2.24322C31.9512 1.76786 27.9676 1.36322 23.9094 1.36322C19.8512 1.36322 15.8715 1.76786 11.9862 2.25108C9.2308 2.60928 6.67751 3.88866 4.74115 5.88137C2.80479 7.87407 1.59914 10.463 1.3201 13.2275C0.860453 17.9811 0.455811 22.8682 0.455811 27.8614C0.455811 32.8507 0.860453 37.7379 1.3201 42.4914C1.5983 45.2566 2.80358 47.8465 4.74001 49.84C6.67645 51.8335 9.2302 53.1134 11.9862 53.4718C15.8676 53.955 19.8512 54.3596 23.9094 54.3596C27.9676 54.3596 31.9512 53.955 35.8365 53.4718C38.5918 53.1126 41.1446 51.8323 43.0803 49.8389C45.0159 47.8454 46.2206 45.2561 46.4987 42.4914C46.9583 37.7379 47.363 32.8507 47.363 27.8614C47.363 26.4707 47.3315 25.0918 47.2765 23.7207L41.2501 29.425C40.7208 29.9238 40.0732 30.2794 39.3683 30.4582L30.7922 32.6661C25.8108 33.9429 20.8412 28.9221 22.169 23.9643L24.4201 15.5768Z" fill="#00C55C"/>
<path d="M12.7563 53.5661C9.78 53.185 7.02102 51.8056 4.93021 49.6535C2.8394 47.5013 1.54042 44.7035 1.24555 41.7175C1.15912 40.8139 1.07662 39.9025 0.998047 38.9911H46.817C46.7384 39.9025 46.6598 40.8139 46.5734 41.7175C46.2792 44.7038 44.9805 47.5019 42.8895 49.6542C40.7986 51.8065 38.0392 53.1857 35.0627 53.5661C31.4209 54.0061 27.6966 54.3597 23.9055 54.3597C20.1184 54.3597 16.3941 54.0061 12.7563 53.5661Z" fill="#0E8345"/>
<path d="M42.8528 3.34718L29.1736 17.3093L26.9225 25.6968C26.5886 26.954 27.8457 28.2229 29.1028 27.8968L37.6828 25.689L51.7511 12.3711C54.0886 10.1554 53.9118 6.2386 51.3543 3.72825C48.8596 1.27289 45.0528 1.10396 42.8528 3.34718Z" fill="#0E8345"/>
</svg>
