<svg width="55" height="55" viewBox="0 0 55 55" fill="none" xmlns="http://www.w3.org/2000/svg">
<path d="M12.7756 44.4636C13.1724 46.416 14.8499 47.9089 16.8417 47.9089H49.2917C51.2874 47.9089 52.961 46.416 53.3774 44.4636C53.8881 42.0475 54.4146 39.7885 54.4146 32.7093C54.4146 25.6339 53.8842 23.3711 53.3735 20.955C52.961 19.0064 51.2874 17.5135 49.2956 17.5135H16.8456C14.8499 17.5135 13.1724 19.0064 12.7756 20.9589C12.2649 23.4889 11.7228 25.846 11.7228 32.7093C11.7228 39.5764 12.261 41.9296 12.7756 44.4636Z" fill="#0E8345"/>
<path d="M1.64211 34.0411C2.03497 35.9936 3.7164 37.4864 5.70818 37.4864H38.1582C40.15 37.4864 41.8275 35.9936 42.24 34.0411C42.7507 31.6289 43.2771 29.3661 43.2771 22.2907C43.2771 15.2114 42.7507 12.9486 42.24 10.5364C41.8275 8.58392 40.15 7.09106 38.1582 7.09106H5.70818C3.7164 7.09106 2.0389 8.58392 1.64211 10.5364C1.12747 13.0704 0.585327 15.4236 0.585327 22.2868C0.585327 29.1539 1.12747 31.5071 1.64211 34.0411Z" fill="#00C55C"/>
<path fill-rule="evenodd" clip-rule="evenodd" d="M28.0107 22.2593C28.0107 26.1486 25.8224 28.3368 21.9332 28.3368C18.0439 28.3368 15.8517 26.1486 15.8517 22.2593C15.8517 18.37 18.0399 16.1779 21.9332 16.1779C25.8224 16.1779 28.0107 18.3661 28.0107 22.2593ZM3.99923 22.3221C3.99507 21.9997 4.05448 21.6796 4.17405 21.3801C4.29362 21.0806 4.47101 20.8076 4.6961 20.5767C4.92119 20.3458 5.18956 20.1614 5.48589 20.0342C5.78222 19.907 6.10071 19.8395 6.42316 19.8354L8.90601 19.8039C9.55721 19.7956 10.1851 20.0463 10.6514 20.5009C11.1178 20.9554 11.3845 21.5767 11.3928 22.2279C11.4011 22.8791 11.1504 23.5069 10.6959 23.9733C10.2413 24.4396 9.62007 24.7063 8.96887 24.7146L6.48601 24.7461C6.16356 24.7502 5.84345 24.6908 5.54397 24.5712C5.24448 24.4517 4.97147 24.2743 4.74055 24.0492C4.50963 23.8241 4.3253 23.5557 4.1981 23.2594C4.07091 22.9631 4.00333 22.6446 3.99923 22.3221ZM32.4735 22.3221C32.4694 21.9997 32.5288 21.6796 32.6483 21.3801C32.7679 21.0806 32.9453 20.8076 33.1704 20.5767C33.3955 20.3458 33.6638 20.1614 33.9602 20.0342C34.2565 19.907 34.575 19.8395 34.8974 19.8354L37.3803 19.8039C38.0315 19.7956 38.6593 20.0463 39.1257 20.5009C39.5921 20.9554 39.8588 21.5767 39.8671 22.2279C39.8754 22.8791 39.6247 23.5069 39.1702 23.9733C38.7156 24.4396 38.0944 24.7063 37.4432 24.7146L34.9603 24.7461C34.6379 24.7502 34.3177 24.6908 34.0183 24.5712C33.7188 24.4517 33.4458 24.2743 33.2148 24.0492C32.9839 23.8241 32.7996 23.5557 32.6724 23.2594C32.5452 22.9631 32.4776 22.6446 32.4735 22.3221Z" fill="#0E8345"/>
</svg>
