<svg width="55" height="55" viewBox="0 0 55 55" fill="none" xmlns="http://www.w3.org/2000/svg">
<path fill-rule="evenodd" clip-rule="evenodd" d="M28.7969 14.3361C28.7969 12.7088 30.116 11.3896 31.7433 11.3896H37.1388C38.7661 11.3896 40.0853 12.7088 40.0853 14.3361C40.0853 15.9633 38.7661 17.2825 37.1388 17.2825H31.7433C30.116 17.2825 28.7969 15.9633 28.7969 14.3361Z" fill="#00C55C"/>
<path fill-rule="evenodd" clip-rule="evenodd" d="M40.504 7.24845C31.6479 6.60216 23.3514 6.60216 14.4952 7.24845C12.2086 7.41534 10.3941 9.25882 10.2601 11.5836C10.1047 14.2813 9.98761 18.4748 9.90967 21.9089H45.0898C45.0116 18.4748 44.8945 14.2813 44.739 11.5836C44.6054 9.25882 42.7908 7.41534 40.504 7.24845ZM31.7432 11.3896C30.1159 11.3896 28.7967 12.7088 28.7967 14.336C28.7967 15.9633 30.1159 17.2825 31.7432 17.2825H37.1387C38.766 17.2825 40.0852 15.9633 40.0852 14.336C40.0852 12.7088 38.766 11.3896 37.1387 11.3896H31.7432Z" fill="#0E8345"/>
<path fill-rule="evenodd" clip-rule="evenodd" d="M40.9338 1.37127C36.3628 1.03769 31.9315 0.870911 27.5001 0.870911C23.0687 0.870903 18.6374 1.03769 14.0664 1.37126C8.79349 1.75606 4.67921 6.00245 4.37722 11.2447L4.35381 11.6668C3.74575 22.4889 3.75375 32.9232 4.37781 43.7557C4.67984 48.998 8.79412 53.2443 14.067 53.629C23.2088 54.296 31.7921 54.296 40.9338 53.629C46.2067 53.2443 50.3211 48.998 50.6228 43.7557C51.2553 32.7824 51.2553 22.2178 50.6228 11.2447C50.3211 6.00245 46.2067 1.75607 40.9338 1.37127ZM31.6021 6.81291C29.1563 6.75442 26.7248 6.74813 24.2821 6.79406C21.0594 6.85464 17.817 7.00612 14.4959 7.24847C12.2093 7.41536 10.3949 9.25884 10.2609 11.5837L10.2376 11.9931C10.0935 14.6928 9.98392 18.6441 9.90983 21.909H45.0898C45.012 18.4748 44.8946 14.2814 44.7394 11.5837C44.6054 9.25884 42.7908 7.41536 40.5044 7.24847C37.4867 7.02828 34.534 6.88308 31.6021 6.81291Z" fill="#00C55C"/>
<path fill-rule="evenodd" clip-rule="evenodd" d="M12.6912 42.9833C12.6912 41.6272 13.7905 40.528 15.1465 40.528H16.4359C17.7919 40.528 18.8912 41.6272 18.8912 42.9833C18.8912 44.3391 17.7919 45.4387 16.4359 45.4387H15.1465C13.7905 45.4387 12.6912 44.3391 12.6912 42.9833Z" fill="#0E8345"/>
<path fill-rule="evenodd" clip-rule="evenodd" d="M24.3867 42.9833C24.3867 41.6272 25.486 40.528 26.8421 40.528H28.1314C29.4875 40.528 30.5868 41.6272 30.5868 42.9833C30.5868 44.3391 29.4875 45.4387 28.1314 45.4387H26.8421C25.486 45.4387 24.3867 44.3391 24.3867 42.9833Z" fill="#0E8345"/>
<path fill-rule="evenodd" clip-rule="evenodd" d="M36.2646 42.9833C36.2646 41.6272 37.3639 40.528 38.72 40.528H40.0095C41.3653 40.528 42.4649 41.6272 42.4649 42.9833C42.4649 44.3391 41.3653 45.4387 40.0095 45.4387H38.72C37.3639 45.4387 36.2646 44.3391 36.2646 42.9833Z" fill="#0E8345"/>
<path fill-rule="evenodd" clip-rule="evenodd" d="M12.6912 32.1489C12.6912 30.7928 13.7905 29.6935 15.1465 29.6935H16.4359C17.7919 29.6935 18.8912 30.7928 18.8912 32.1489C18.8912 33.505 17.7919 34.6043 16.4359 34.6043H15.1465C13.7905 34.6043 12.6912 33.505 12.6912 32.1489Z" fill="#0E8345"/>
<path fill-rule="evenodd" clip-rule="evenodd" d="M24.3867 32.1489C24.3867 30.7928 25.486 29.6935 26.8421 29.6935H28.1314C29.4875 29.6935 30.5868 30.7928 30.5868 32.1489C30.5868 33.505 29.4875 34.6043 28.1314 34.6043H26.8421C25.486 34.6043 24.3867 33.505 24.3867 32.1489Z" fill="#0E8345"/>
<path fill-rule="evenodd" clip-rule="evenodd" d="M36.2646 32.1489C36.2646 30.7928 37.3639 29.6935 38.72 29.6935H40.0095C41.3653 29.6935 42.4649 30.7928 42.4649 32.1489C42.4649 33.505 41.3653 34.6043 40.0095 34.6043H38.72C37.3639 34.6043 36.2646 33.505 36.2646 32.1489Z" fill="#0E8345"/>
</svg>
