<svg width="55" height="55" viewBox="0 0 55 55" fill="none" xmlns="http://www.w3.org/2000/svg">
<g clip-path="url(#clip0_32_10902)">
<path d="M27.4647 26.8793C31.2282 26.8793 33.3418 24.7657 33.3418 21.0021C33.3418 17.2425 31.2282 15.125 27.4647 15.125C23.705 15.125 21.5875 17.2425 21.5875 21.0021C21.5875 24.7657 23.705 26.8793 27.4647 26.8793Z" fill="#0E8345"/>
<path fill-rule="evenodd" clip-rule="evenodd" d="M27.4764 9.82141C21.56 9.82141 17.3014 11.436 14.5003 14.1193C13.9316 14.6343 13.1845 14.9071 12.4177 14.8798C11.6509 14.8525 10.9251 14.5272 10.3944 13.973C9.86382 13.4188 9.57028 12.6795 9.57625 11.9123C9.58222 11.1451 9.88723 10.4105 10.4264 9.86462C14.6221 5.84962 20.5032 3.92462 27.4764 3.92462C34.6225 3.92462 40.6175 5.94391 44.825 10.1514C48.7693 14.0957 50.7886 19.6153 51.0282 26.1721L51.9986 25.9521C52.4177 25.856 52.8548 25.8716 53.266 25.9975C53.6772 26.1233 54.0482 26.3549 54.3417 26.6692C54.6353 26.9834 54.8412 27.3693 54.9388 27.7881C55.0364 28.2069 55.0223 28.644 54.8978 29.0557C54.4718 30.5667 53.685 31.9515 52.6051 33.091C51.5252 34.2304 50.1845 35.0904 48.6986 35.5968C48.1992 35.7773 47.6547 35.7911 47.1468 35.6361C45.6369 35.2099 44.2532 34.4234 43.1145 33.3442C41.9758 32.2651 41.1162 30.9255 40.6096 29.4407C40.4624 29.0357 40.4244 28.5991 40.4994 28.1747C40.5743 27.7503 40.7597 27.3532 41.0368 27.0231C41.3139 26.6931 41.673 26.4418 42.0779 26.2945C42.4829 26.1472 42.9195 26.109 43.3439 26.1839L45.1432 26.4982C44.9664 20.9628 43.3086 16.9675 40.6568 14.3196C37.8518 11.5146 33.5343 9.82141 27.4764 9.82141ZM9.81356 28.4821L11.6325 28.8043C12.057 28.8787 12.4937 28.84 12.8986 28.6922C13.3034 28.5444 13.6623 28.2926 13.939 27.9621C14.2157 27.6317 14.4006 27.2342 14.475 26.8096C14.5494 26.3851 14.5107 25.9484 14.3628 25.5435C13.8574 24.0625 12.9998 22.7263 11.8639 21.6499C10.7279 20.5734 9.34754 19.789 7.84141 19.3639C7.33351 19.2088 6.78903 19.2226 6.28963 19.4032C4.80736 19.9085 3.47009 20.7664 2.39292 21.9031C1.31574 23.0398 0.530938 24.4213 0.106055 25.9286C-0.0198221 26.3403 -0.0352136 26.7779 0.061425 27.1975C0.158064 27.6171 0.363334 28.0039 0.656646 28.3191C0.949958 28.6343 1.321 28.8668 1.73255 28.9933C2.1441 29.1199 2.58168 29.1359 3.00141 29.04L3.92856 28.8239C4.16427 35.3846 6.18356 40.9003 10.1318 44.8485C14.3353 49.0521 20.3343 51.0714 27.4764 51.0714C34.6421 51.0714 40.6528 49.0403 44.8603 44.8053C45.149 44.5348 45.3802 44.2088 45.5402 43.847C45.7002 43.4851 45.7856 43.0947 45.7915 42.6991C45.7973 42.3035 45.7234 41.9108 45.5742 41.5443C45.4249 41.1779 45.2034 40.8453 44.9229 40.5663C44.6423 40.2873 44.3085 40.0677 43.9412 39.9206C43.5739 39.7734 43.1808 39.7017 42.7852 39.7098C42.3896 39.7179 41.9997 39.8055 41.6388 39.9676C41.2778 40.1296 40.9532 40.3626 40.6843 40.6528C37.8793 43.4735 33.5539 45.1786 27.4764 45.1786C21.4186 45.1786 17.105 43.4814 14.2961 40.6764C11.6443 38.0246 9.98641 34.0293 9.81356 28.4821Z" fill="#00C55C"/>
<path fill-rule="evenodd" clip-rule="evenodd" d="M36.9482 37.4118C36.3314 35.0036 35.4789 32.7211 33.4989 31.0554C31.8149 29.6312 29.6819 28.8478 27.4764 28.8436C25.2803 28.8436 23.155 29.6254 21.4539 31.0554C19.4739 32.7211 18.6214 35.0036 18.0085 37.4118C19.8825 39.1521 22.876 40.3818 27.4764 40.3818C32.0768 40.3818 35.0782 39.1521 36.9482 37.4118Z" fill="#0E8345"/>
</g>
<defs>
<clipPath id="clip0_32_10902">
<rect width="55" height="55" fill="white"/>
</clipPath>
</defs>
</svg>
