<svg width="55" height="55" viewBox="0 0 55 55" fill="none" xmlns="http://www.w3.org/2000/svg">
<path fill-rule="evenodd" clip-rule="evenodd" d="M27.4999 1.96429C22.1256 1.96429 17.7806 2.12537 13.2824 2.43572C10.9781 2.59224 8.80937 3.58118 7.18023 5.21827C5.55109 6.85537 4.57271 9.02893 4.42742 11.3339C4.09256 16.7161 3.92616 22.1074 3.92849 27.5C3.92849 33.0393 4.10135 38.445 4.42742 43.6661C4.57271 45.9711 5.55109 48.1447 7.18023 49.7817C8.80937 51.4188 10.9781 52.4078 13.2824 52.5643C17.7806 52.8747 22.1217 53.0357 27.4999 53.0357C32.8742 53.0357 37.2192 52.8747 41.7174 52.5643C44.0217 52.4078 46.1905 51.4188 47.8196 49.7817C49.4488 48.1447 50.4271 45.9711 50.5724 43.6661C51.0473 36.0676 51.1862 28.4518 50.9889 20.8411C50.944 18.9068 50.3079 17.0326 49.166 15.4707C45.6146 10.6347 42.7389 7.57037 38.0403 3.94429C36.4558 2.73027 34.5242 2.05565 32.5285 2.01929C30.8526 1.98261 29.1763 1.96428 27.4999 1.96429Z" fill="#00C55C"/>
<path fill-rule="evenodd" clip-rule="evenodd" d="M23.6499 16.995C23.9105 16.7949 24.1283 16.5445 24.2904 16.2587C24.4525 15.9729 24.5555 15.6575 24.5935 15.3311C24.6314 15.0047 24.6035 14.674 24.5113 14.3587C24.4191 14.0433 24.2646 13.7496 24.0568 13.4951C23.8491 13.2405 23.5924 13.0302 23.3019 12.8767C23.0114 12.7232 22.693 12.6295 22.3656 12.6013C22.0383 12.573 21.7086 12.6108 21.3961 12.7123C21.0836 12.8138 20.7946 12.9769 20.5463 13.1922C18.8453 14.5829 17.5095 15.8793 16.3703 17.4822C15.8273 18.2522 15.3414 19.0611 14.9167 19.9022L13.8285 18.8964C13.3467 18.4854 12.7248 18.2763 12.0926 18.313C11.4604 18.3496 10.8667 18.6291 10.4357 19.0931C10.0047 19.557 9.76963 20.1696 9.77959 20.8028C9.78955 21.436 10.0438 22.0409 10.4892 22.4911L14.0995 25.8539C14.3935 26.1275 14.7501 26.3247 15.138 26.4284C15.5259 26.5321 15.9333 26.5391 16.3245 26.4487C16.7158 26.3584 17.0789 26.1735 17.3821 25.9102C17.6852 25.6469 17.9192 25.3133 18.0635 24.9386C18.8767 22.8289 19.5681 21.4539 20.3695 20.3264C21.1631 19.2107 22.1374 18.2286 23.6499 16.995ZM23.6499 32.8468C23.9105 32.6467 24.1283 32.3963 24.2904 32.1105C24.4525 31.8247 24.5555 31.5093 24.5935 31.1829C24.6314 30.8565 24.6035 30.5258 24.5113 30.2104C24.4191 29.8951 24.2646 29.6014 24.0568 29.3468C23.8491 29.0923 23.5924 28.882 23.3019 28.7285C23.0114 28.5749 22.693 28.4813 22.3656 28.453C22.0383 28.4248 21.7086 28.4625 21.3961 28.564C21.0836 28.6655 20.7946 28.8287 20.5463 29.0439C18.8453 30.4347 17.5095 31.7311 16.3703 33.3379C15.8274 34.1067 15.3416 34.9142 14.9167 35.754L13.8324 34.7482C13.5995 34.5128 13.3214 34.327 13.0148 34.2018C12.7082 34.0767 12.3794 34.0149 12.0483 34.0201C11.7172 34.0253 11.3906 34.0974 11.0881 34.2321C10.7855 34.3669 10.5134 34.5614 10.288 34.804C10.0626 35.0466 9.88867 35.3323 9.77656 35.6439C9.66446 35.9555 9.61655 36.2866 9.6357 36.6172C9.65486 36.9478 9.7407 37.2711 9.88805 37.5677C10.0354 37.8642 10.2412 38.1279 10.4931 38.3429L14.1035 41.7057C14.3974 41.9792 14.754 42.1765 15.1419 42.2802C15.5298 42.3839 15.9372 42.3909 16.3285 42.3005C16.7197 42.2102 17.0828 42.0253 17.386 41.762C17.6892 41.4987 17.9231 41.1651 18.0674 40.7904C18.8806 38.6807 19.572 37.3097 20.3735 36.1822C21.167 35.0625 22.1374 34.0843 23.6499 32.8468ZM29.2599 21.5404C29.2599 20.185 30.3599 19.085 31.7153 19.085H41.5367C42.1879 19.085 42.8124 19.3437 43.2729 19.8042C43.7334 20.2646 43.992 20.8892 43.992 21.5404C43.992 22.1916 43.7334 22.8161 43.2729 23.2766C42.8124 23.737 42.1879 23.9957 41.5367 23.9957H31.7153C31.0641 23.9957 30.4395 23.737 29.9791 23.2766C29.5186 22.8161 29.2599 22.1916 29.2599 21.5404ZM31.7153 35.8011C31.0641 35.8011 30.4395 36.0598 29.9791 36.5202C29.5186 36.9807 29.2599 37.6052 29.2599 38.2564C29.2599 38.9076 29.5186 39.5322 29.9791 39.9926C30.4395 40.4531 31.0641 40.7118 31.7153 40.7118H41.5367C42.1879 40.7118 42.8124 40.4531 43.2729 39.9926C43.7334 39.5322 43.992 38.9076 43.992 38.2564C43.992 37.6052 43.7334 36.9807 43.2729 36.5202C42.8124 36.0598 42.1879 35.8011 41.5367 35.8011H31.7153Z" fill="#0E8345"/>
</svg>
