<svg width="55" height="55" viewBox="0 0 55 55" fill="none" xmlns="http://www.w3.org/2000/svg">
<g clip-path="url(#clip0_32_10904)">
<path fill-rule="evenodd" clip-rule="evenodd" d="M26.9023 29.6405L19.2021 32.0612C16.2107 33.0017 13.437 31.927 11.7313 30.3786C10.0258 28.8305 8.68544 26.1701 9.3388 23.0971L9.85321 20.6778H8.25007C5.27615 20.6778 2.89477 22.8589 2.2631 25.5671L2.18138 25.9162C1.58574 28.4556 0.982178 31.0288 0.982178 37.8391C0.982178 44.6494 1.58574 47.2226 2.18138 49.7621L2.2631 50.1109C2.89478 52.8193 5.27615 55.0004 8.25007 55.0004H46.75C49.7267 55.0004 52.0968 52.8177 52.7482 50.131L52.8146 49.8583C53.4156 47.3888 54.0179 44.9138 54.0179 37.8391C54.0179 30.7645 53.4156 28.2894 52.8146 25.8199L52.7482 25.5473C52.0968 22.8605 49.7267 20.6778 46.75 20.6778H36.451L29.4343 28.0611C28.7379 28.7938 27.8666 29.3373 26.9023 29.6405Z" fill="#00C55C"/>
<path fill-rule="evenodd" clip-rule="evenodd" d="M36.4462 31.2368C35.0902 31.2368 33.9909 32.336 33.9909 33.6921C33.9909 35.0482 35.0902 36.1475 36.4462 36.1475H43.3667C44.7225 36.1475 45.8221 35.0482 45.8221 33.6921C45.8221 32.336 44.7225 31.2368 43.3667 31.2368H36.4462ZM29.5257 42.163C28.1696 42.163 27.0703 43.2622 27.0703 44.6184C27.0703 45.9745 28.1696 47.0737 29.5257 47.0737H43.3667C44.7225 47.0737 45.8221 45.9745 45.8221 44.6184C45.8221 43.2622 44.7225 42.163 43.3667 42.163H29.5257Z" fill="#0E8345"/>
<path fill-rule="evenodd" clip-rule="evenodd" d="M37.4199 2.12173C34.6323 -0.34389 30.4167 -0.42236 28.0346 2.28049L16.0259 15.9064C15.9068 16.0415 15.8246 16.205 15.7871 16.3812L14.142 24.1188C13.9185 25.1701 14.3647 26.1375 15.0317 26.743C15.6988 27.3485 16.7045 27.6992 17.7292 27.377L25.4293 24.9563C25.5989 24.903 25.7521 24.8074 25.8745 24.6786L38.2782 11.627C40.8218 8.9506 40.2722 4.64453 37.4199 2.12173Z" fill="#0E8345"/>
</g>
<defs>
<clipPath id="clip0_32_10904">
<rect width="55" height="55" fill="white"/>
</clipPath>
</defs>
</svg>
